<svg width="1560" height="480" xmlns="http://www.w3.org/2000/svg" xmlns:xlink="http://www.w3.org/1999/xlink">
  <!-- Background gradient -->
  <defs>
    <linearGradient id="grad1" x1="0%" y1="0%" x2="100%" y2="100%">
      <stop offset="0%" style="stop-color:#ed1c24;stop-opacity:1" />
      <stop offset="50%" style="stop-color:#d91920;stop-opacity:1" />
      <stop offset="100%" style="stop-color:#1f2937;stop-opacity:1" />
    </linearGradient>
  </defs>

  <rect width="1560" height="480" fill="url(#grad1)"/>

  <!-- Decorative circles -->
  <circle cx="1600" cy="-50" r="250" fill="white" opacity="0.05"/>
  <circle cx="-100" cy="530" r="300" fill="white" opacity="0.05"/>

  <!-- Content -->
  <text x="80" y="110" font-family="Noto Sans, sans-serif" font-size="16" font-weight="600" fill="white" opacity="0.9" letter-spacing="2">FABRICANTES DE</text>

  <text x="80" y="180" font-family="Noto Sans, sans-serif" font-size="52" font-weight="900" fill="white" letter-spacing="-1">MAZA de Calidad</text>
  <text x="80" y="240" font-family="Noto Sans, sans-serif" font-size="52" font-weight="900" fill="white" letter-spacing="-1">Superior</text>

  <text x="80" y="285" font-family="Noto Sans, sans-serif" font-size="20" fill="white" opacity="0.95">Precisión y durabilidad para aplicaciones automotrices exigentes</text>

  <!-- Button -->
  <rect x="80" y="330" width="240" height="56" rx="8" fill="white"/>
  <text x="200" y="364" font-family="Noto Sans, sans-serif" font-size="18" font-weight="700" fill="#ed1c24" text-anchor="middle">Buscar Refacciones</text>

  <!-- ACR Logo -->
  <g transform="translate(1110, 165)">
    <rect width="300" height="120" rx="12" fill="white"/>
    <g transform="translate(150, 60) scale(0.3)">
      <svg xmlns="http://www.w3.org/2000/svg" viewBox="0 0 500 200" width="500" height="200">
      <g transform="translate(0, 0)">
        <path transform="matrix(1,0,0,-1,442.466,25.635499)" d="M0 0H-112.837V-30.118H-11.637C-7.045-30.118-3.322-33.841-3.322-38.433-3.322-43.026-7.045-46.748-11.637-46.748H-79.149-112.837-112.927V-123.445H-79.149V-76.866H-75.534L-21.509-123.445H24.777L-29.249-76.866H0C16.634-76.866 30.118-63.382 30.118-46.748V-30.118C30.118-13.484 16.634 0 0 0" fill="#ed1c24"/>
        <path transform="matrix(1,0,0,-1,165.8716,55.7536)" d="M0 0H142.925V30.118H29.495C13.424 29.186 .605 16.158 0 0" fill="#ed1c24"/>
        <path transform="matrix(1,0,0,-1,55.5945,55.7536)" d="M0 0H60.525L47.988 30.118H12.537Z" fill="#ed1c24"/>
        <path transform="matrix(1,0,0,-1,199.6193,103.289)" d="M0 0V30.905H-33.778V-14.423C-33.778-31.747-19.734-45.791-2.409-45.791H0 109.177V-15.673H15.673C7.017-15.673 0-8.656 0 0" fill="#ed1c24"/>
        <path transform="matrix(1,0,0,-1,123.968,72.3838)" d="M0 0H-26.312-33.778-41.282-45.964-75.06L-106.987-76.696H-73.209L-45.035-9.019C-45-8.932-45.073-9.104-45.035-9.019-43.744-6.177-40.841-4.093-37.517-4.093-33.87-4.093-30.782-6.474-29.713-9.765L-1.851-76.696H31.926Z" fill="#ed1c24"/>
        <path transform="matrix(1,0,0,-1,137.541,166.2842)" d="M0 0C-.12 .48-.24 .64-.64 .64-1.04 .64-1.16 .48-1.28 0L-4.159-11.878H2.879ZM10.798-24.716H6.559C6.199-24.716 5.879-24.396 5.799-24.036L3.959-16.437H-5.239L-7.079-24.036C-7.159-24.396-7.479-24.716-7.838-24.716H-12.078C-12.478-24.716-12.798-24.436-12.798-24.036-12.798-23.996-12.758-23.916-12.758-23.836L-6.199 1.24C-5.239 4.959-2.359 5.319-.64 5.319 1.08 5.319 3.959 4.959 4.919 1.24L11.478-23.836C11.478-23.916 11.518-23.996 11.518-24.036 11.518-24.436 11.198-24.716 10.798-24.716" fill="#231f20"/>
        <path transform="matrix(1,0,0,-1,162.8218,191.3198)" d="M0 0C-6.439 0-10.999 2.799-10.999 11.318V29.275C-10.999 29.715-10.638 30.035-10.198 30.035H-6.239C-5.799 30.035-5.439 29.715-5.439 29.275V11.318C-5.439 6.759-4.319 4.599 0 4.599 4.319 4.599 5.439 6.759 5.439 11.318V29.275C5.439 29.715 5.799 30.035 6.239 30.035H10.198C10.638 30.035 10.998 29.715 10.998 29.275V11.318C10.998 2.799 6.439 0 0 0" fill="#231f20"/>
        <path transform="matrix(1,0,0,-1,197.9795,165.9243)" d="M0 0H-6.999V-24.276C-6.999-24.716-7.359-25.076-7.799-25.076H-11.758C-12.198-25.076-12.558-24.716-12.558-24.276V0H-19.557C-19.997 0-20.356 .28-20.356 .72V3.879C-20.356 4.319-19.997 4.639-19.557 4.639H0C.44 4.639 .8 4.319 .8 3.879V.72C.8 .28 .44 0 0 0" fill="#231f20"/>
        <path transform="matrix(1,0,0,-1,217.7803,173.4429)" d="M0 0C0 5.279-1.88 7.639-5.799 7.639-9.719 7.639-11.598 5.279-11.598 0V-5.399C-11.598-10.678-9.719-13.038-5.799-13.038-1.88-13.038 0-10.678 0-5.399ZM-5.799-17.877C-12.398-17.877-17.197-14.198-17.197-5.399V0C-17.197 8.798-12.398 12.478-5.799 12.478 .8 12.478 5.599 8.798 5.599 0V-5.399C5.599-14.198 .8-17.877-5.799-17.877" fill="#231f20"/>
        <path transform="matrix(1,0,0,-1,253.5781,191)" d="M0 0H-4.039C-4.399 0-4.679 .4-4.679 .8V19.397C-4.679 19.677-4.719 19.797-4.799 19.797-4.839 19.797-4.919 19.677-4.999 19.557L-8.838 11.918C-9.078 11.478-9.598 11.238-10.118 11.238H-14.157C-14.677 11.238-15.197 11.478-15.437 11.918L-19.316 19.557C-19.396 19.677-19.477 19.797-19.517 19.797-19.597 19.797-19.637 19.677-19.637 19.397V.8C-19.637 .4-19.917 0-20.276 0H-24.316C-24.676 0-24.996 .2-24.996 .6V28.115C-24.996 28.995-24.276 29.715-23.396 29.715H-20.116C-19.477 29.715-18.917 29.315-18.637 28.755L-12.598 16.517C-12.398 16.157-12.318 15.958-12.158 15.958-11.998 15.958-11.918 16.157-11.718 16.517L-5.679 28.755C-5.399 29.315-4.839 29.715-4.199 29.715H-.919C-.04 29.715 .68 28.995 .68 28.115V.6C.68 .2 .36 0 0 0" fill="#231f20"/>
        <path transform="matrix(1,0,0,-1,276.6597,173.4429)" d="M0 0C0 5.279-1.88 7.639-5.799 7.639-9.719 7.639-11.598 5.279-11.598 0V-5.399C-11.598-10.678-9.719-13.038-5.799-13.038-1.88-13.038 0-10.678 0-5.399ZM-5.799-17.877C-12.398-17.877-17.197-14.198-17.197-5.399V0C-17.197 8.798-12.398 12.478-5.799 12.478 .8 12.478 5.599 8.798 5.599 0V-5.399C5.599-14.198 .8-17.877-5.799-17.877" fill="#231f20"/>
        <path transform="matrix(1,0,0,-1,304.4194,165.9243)" d="M0 0H-6.999V-24.276C-6.999-24.716-7.359-25.076-7.799-25.076H-11.758C-12.198-25.076-12.558-24.716-12.558-24.276V0H-19.557C-19.997 0-20.356 .28-20.356 .72V3.879C-20.356 4.319-19.997 4.639-19.557 4.639H0C.44 4.639 .8 4.319 .8 3.879V.72C.8 .28 .44 0 0 0" fill="#231f20"/>
        <path transform="matrix(1,0,0,-1,313.9814,191)" d="M0 0H-3.959C-4.399 0-4.759 .36-4.759 .8V28.955C-4.759 29.395-4.399 29.715-3.959 29.715H0C.44 29.715 .8 29.395 .8 28.955V.8C.8 .36 .44 0 0 0" fill="#231f20"/>
        <path transform="matrix(1,0,0,-1,343.0181,162.16501)" d="M0 0-6.559-25.076C-7.519-28.795-10.398-29.155-12.118-29.155-13.838-29.155-16.717-28.795-17.677-25.076L-24.236 0C-24.236 .08-24.276 .12-24.276 .2-24.276 .6-23.956 .88-23.556 .88H-19.317C-18.957 .88-18.637 .56-18.557 .2L-12.758-23.836C-12.638-24.316-12.518-24.476-12.118-24.476-11.718-24.476-11.598-24.316-11.478-23.836L-5.679 .2C-5.599 .56-5.279 .88-4.919 .88H-.68C-.28 .88 .04 .6 .04 .2 .04 .12 0 .08 0 0" fill="#231f20"/>
        <path transform="matrix(1,0,0,-1,362.3794,190.7603)" d="M0 0C-1.28-.2-2.84-.56-7.599-.56-12.798-.56-16.837 .84-16.837 7.639V21.597C-16.837 28.396-12.798 29.795-7.599 29.795-2.84 29.795-1.28 29.435 0 29.235 .6 29.155 .8 28.956 .8 28.396V25.836C.8 25.396 .439 25.036 0 25.036H-8.159C-10.479 25.036-11.318 24.236-11.318 21.597V17.277H-.48C-.04 17.277 .32 16.917 .32 16.478V13.598C.32 13.158-.04 12.798-.48 12.798H-11.318V7.639C-11.318 5-10.479 4.2-8.159 4.2H0C.439 4.2 .8 3.839 .8 3.399V.84C.8 .28 .6 .08 0 0" fill="#231f20"/>
      </g>
      </svg>
    </g>
  </g>
</svg>
